<svg xmlns="http://www.w3.org/2000/svg" viewBox="0 0 500 500">
    <path d="M 250 0 A 50 50 0 0 0 200 50 A 50 50 0 0 0 240 98.986328 L 240 267.9043 C 239.28689 267.65268 238.58158 267.37801 237.88867 267.07227 C 226.81335 261.20074 221.65395 248.73082 218.05078 237.39258 C 211.271 213.42971 208.53247 188.35102 202.85742 164.04492 C 197.95986 142.70343 190.94179 120.64729 175.29102 104.60352 C 164.914 93.52554 150.43455 85.865387 135.04492 85.771484 C 134.18741 85.746414 133.33047 85.740733 132.47266 85.751953 C 118.27981 86.133176 103.92155 92.071281 94.326172 102.66797 C 90.608529 106.95827 87.615987 113.08831 89.435547 118.7793 C 91.857819 120.27301 94.659086 117.71069 97.087891 117.21094 C 106.34614 113.66576 116.9282 113.3899 126.37695 116.22656 C 142.04843 121.86129 152.34575 136.72997 158.79883 151.39453 C 169.69753 175.70225 170.45409 202.95635 178.27344 228.30273 C 184.64688 249.8726 193.81399 272.01634 211.49805 286.79102 C 219.60086 293.60703 229.58546 297.88078 240 299.45898 L 240 350 L 168.25 350 A 30 30 0 0 0 140 330 A 30 30 0 0 0 110 360 A 30 30 0 0 0 140 390 A 30 30 0 0 0 168.24609 370 L 240 370 L 240 421.30078 A 40 40 0 0 0 210 460 A 40 40 0 0 0 250 500 A 40 40 0 0 0 290 460 A 40 40 0 0 0 260 421.32227 L 260 370 L 331.75 370 A 30 30 0 0 0 360 390 A 30 30 0 0 0 390 360 A 30 30 0 0 0 360 330 A 30 30 0 0 0 331.75391 350 L 260 350 L 260 299.57422 C 272.1386 298.20239 283.95716 293.45984 293.39258 285.70703 C 302.41405 277.95594 310.21392 268.78938 315.83008 258.27148 C 328.99031 235.42129 336.32141 209.95587 345.60352 185.43945 C 356.77159 157.98347 371.84869 131.45136 393.86719 111.24609 C 404.56239 101.16575 417.96202 93.820165 432.37695 90.650391 C 434.31184 89.76896 432.39513 87.856904 430.9082 88.142578 C 409.80512 85.075967 387.40095 85.258633 367.7168 94.419922 C 343.79584 104.94022 326.51148 126.25893 314.89062 149.07812 C 305.01756 169.90972 300.59797 192.72701 294.55664 214.83594 C 290.27955 230.47065 286.17209 247.188 275.0332 259.5625 C 270.99673 263.86953 265.70466 266.8819 260 268.45117 L 260 98.935547 A 50 50 0 0 0 300 50 A 50 50 0 0 0 250 0 z M 250 25 A 25 25 0 0 1 275 50 A 25 25 0 0 1 250 75 A 25 25 0 0 1 225 50 A 25 25 0 0 1 250 25 z " />
</svg>
