<svg xmlns="http://www.w3.org/2000/svg" viewBox="0 0 500 500">
  <path d="M250 0A50 50 0 0 0 200 50 50 50 0 0 0 240 99L240 268C239 268 239 267 238 267 227 261 222 249 218 237 211 213 209 188 203 164 198 143 191 121 175 105 165 94 150 86 135 86 134 86 133 86 132 86 118 86 104 92 94 103 91 107 88 113 89 119 92 120 95 118 97 117 106 114 117 113 126 116 142 122 152 137 159 151 170 176 170 203 178 228 185 250 194 272 211 287 220 294 230 298 240 299L240 350 168 350A30 30 0 0 0 140 330 30 30 0 0 0 110 360 30 30 0 0 0 140 390 30 30 0 0 0 168 370L240 370 240 421A40 40 0 0 0 210 460 40 40 0 0 0 250 500 40 40 0 0 0 290 460 40 40 0 0 0 260 421L260 370 332 370A30 30 0 0 0 360 390 30 30 0 0 0 390 360 30 30 0 0 0 360 330 30 30 0 0 0 332 350L260 350 260 300C272 298 284 293 293 286 302 278 310 269 316 258 329 235 336 210 346 185 357 158 372 131 394 111 405 101 418 94 432 91 434 90 432 88 431 88 410 85 387 85 368 94 344 105 327 126 315 149 305 170 301 193 295 215 290 230 286 247 275 260 271 264 266 267 260 268L260 99A50 50 0 0 0 300 50 50 50 0 0 0 250 0zM250 25A25 25 0 0 1 275 50 25 25 0 0 1 250 75 25 25 0 0 1 225 50 25 25 0 0 1 250 25z"/>
</svg>
