<?xml version="1.0" standalone="no"?>
<!DOCTYPE svg PUBLIC "-//W3C//DTD SVG 20010904//EN"
 "http://www.w3.org/TR/2001/REC-SVG-20010904/DTD/svg10.dtd">
<svg version="1.0" xmlns="http://www.w3.org/2000/svg"
 width="1200.000000pt" height="1200.000000pt" viewBox="0 0 1200.000000 1200.000000"
 preserveAspectRatio="xMidYMid meet">
<metadata>
Created by potrace 1.11, written by Peter Selinger 2001-2013
</metadata>
<g transform="translate(0.000000,1200.000000) scale(0.100000,-0.100000)"
fill="#000000" stroke="none">
<path d="M2282 10414 c-119 -81 -155 -174 -104 -272 27 -52 64 -70 158 -78
149 -12 263 -79 363 -213 59 -81 151 -247 151 -275 0 -9 5 -24 10 -34 9 -15
88 -233 296 -817 41 -115 81 -227 89 -247 8 -20 62 -171 120 -335 59 -164 113
-312 121 -330 8 -17 14 -34 14 -39 0 -4 24 -75 54 -158 30 -83 105 -293 166
-466 61 -173 121 -338 132 -367 12 -32 17 -57 11 -66 -4 -8 -42 -46 -83 -85
-41 -38 -142 -136 -225 -217 -225 -221 -718 -703 -815 -796 -47 -45 -157 -152
-246 -238 -88 -86 -291 -282 -450 -436 -543 -526 -990 -978 -1017 -1027 -70
-130 -79 -266 -26 -384 81 -180 408 -212 594 -59 76 63 182 172 295 304 30 36
62 72 70 81 8 8 40 45 70 80 30 36 57 67 60 70 5 5 99 113 195 224 28 32 55
64 60 70 6 6 77 90 160 186 82 96 152 177 155 180 3 3 102 118 220 255 188
218 241 280 285 329 6 6 64 74 130 151 66 77 204 237 306 355 101 118 219 256
261 305 42 50 99 114 126 143 l50 53 10 -28 c5 -15 31 -86 57 -158 41 -115
141 -392 212 -590 13 -38 33 -92 43 -120 10 -27 39 -106 63 -175 25 -69 82
-224 127 -345 45 -121 113 -305 152 -410 38 -104 74 -199 78 -210 5 -11 26
-63 46 -115 98 -256 174 -440 197 -476 39 -61 112 -129 205 -192 l87 -57 344
0 344 0 28 38 c44 61 45 73 7 115 -33 36 -126 215 -188 362 -40 94 -120 308
-120 320 0 9 -129 376 -195 555 -18 50 -69 189 -113 310 -128 351 -231 634
-372 1020 -73 198 -149 407 -170 465 -21 58 -86 238 -145 400 -58 162 -142
396 -186 520 -44 124 -84 234 -89 245 -5 11 -16 40 -24 65 -8 25 -21 63 -30
85 -8 22 -70 193 -136 380 -67 187 -152 426 -190 530 -38 105 -94 262 -126
350 -240 670 -295 811 -340 877 -147 216 -405 341 -824 402 -63 9 -213 18
-338 20 l-122 3 -48 -33z"/>
<path d="M7237 6823 c-1 -1 -103 -3 -227 -4 -124 -1 -233 -5 -244 -7 -30 -8
-44 -60 -44 -164 l-1 -97 118 -163 c65 -90 189 -262 276 -383 87 -121 180
-249 206 -285 26 -36 145 -200 263 -365 119 -165 247 -343 285 -395 223 -306
604 -837 607 -845 3 -6 -4 -20 -13 -30 -10 -11 -128 -146 -263 -300 -134 -154
-247 -282 -250 -285 -3 -3 -84 -95 -180 -205 -96 -110 -193 -220 -215 -244
-55 -61 -56 -61 -94 -106 -29 -34 -111 -127 -186 -211 -11 -12 -47 -52 -80
-90 -175 -198 -319 -360 -325 -364 -4 -3 -39 -45 -79 -94 -68 -84 -72 -92 -66
-125 4 -20 8 -38 10 -40 2 -2 30 -10 62 -17 48 -11 408 -14 2056 -14 l1997 0
1 35 c1 19 2 38 3 43 4 13 16 106 21 157 3 28 7 66 10 85 6 50 14 121 25 230
37 358 57 544 65 615 2 22 7 67 10 100 4 33 8 71 10 85 2 14 7 61 11 105 4 44
8 82 9 85 1 3 5 34 9 70 11 86 14 110 21 143 l5 27 -77 1 c-90 1 -217 -2 -219
-4 -1 -1 -5 -45 -8 -98 -4 -52 -9 -109 -12 -125 -46 -280 -166 -593 -286 -750
-56 -75 -84 -102 -168 -168 -73 -57 -95 -67 -232 -110 -210 -66 -447 -101
-713 -106 -71 -1 -229 -4 -350 -6 -260 -5 -214 -5 -360 -3 -66 1 -124 0 -130
-1 -5 -1 -14 -1 -20 0 -26 5 -385 1 -394 -5 -6 -3 -11 -3 -11 2 0 7 -113 8
-230 3 -14 -1 -82 -1 -151 0 -70 0 -130 0 -135 -1 -5 -1 -35 -1 -67 0 l-58 1
72 82 c39 46 84 97 99 113 14 17 93 107 174 200 82 94 161 184 177 202 15 17
74 85 131 150 56 65 105 120 108 123 3 3 66 75 140 160 74 85 149 171 166 190
40 44 181 205 259 295 33 38 98 112 144 165 46 52 95 109 110 125 14 17 54 62
89 101 34 40 62 79 62 88 0 25 -25 70 -104 184 -39 57 -75 111 -81 120 -5 9
-13 19 -16 22 -3 3 -43 59 -89 125 -104 150 -736 1024 -943 1305 -39 52 -83
113 -99 135 -16 22 -56 76 -88 120 -32 44 -57 82 -54 84 12 12 1422 0 1674
-14 392 -22 600 -52 707 -100 17 -8 34 -15 38 -15 13 0 122 -54 160 -81 115
-77 251 -252 312 -399 75 -180 148 -481 176 -725 l4 -30 142 -1 c78 -1 143 1
145 5 2 3 -3 51 -10 106 -14 103 -38 304 -49 410 -4 33 -11 92 -16 130 -6 39
-10 77 -10 85 0 8 -5 49 -9 90 -5 41 -12 100 -15 130 -3 30 -7 71 -10 90 -2
19 -7 55 -9 80 -19 170 -37 329 -41 350 -16 107 -27 188 -27 207 l0 22 -1805
-2 c-993 -1 -1805 -3 -1806 -4z"/>
</g>
</svg>
