<?xml version="1.0" standalone="no"?>
<!DOCTYPE svg PUBLIC "-//W3C//DTD SVG 20010904//EN"
 "http://www.w3.org/TR/2001/REC-SVG-20010904/DTD/svg10.dtd">
<svg version="1.0" xmlns="http://www.w3.org/2000/svg"
 width="700.000000pt" height="700.000000pt" viewBox="0 0 700.000000 700.000000"
 preserveAspectRatio="xMidYMid meet">
<metadata>
Created by potrace 1.11, written by Peter Selinger 2001-2013
</metadata>
<g transform="translate(0.000000,700.000000) scale(0.100000,-0.100000)"
fill="#000000" stroke="none">
<path d="M3365 6986 c-261 -56 -450 -230 -537 -492 -18 -56 -22 -91 -22 -184
0 -130 12 -194 59 -297 87 -189 222 -309 425 -378 l65 -23 3 -1181 2 -1182
-37 21 c-107 60 -189 180 -254 367 -16 45 -34 104 -40 130 -6 26 -12 55 -14
63 -16 67 -49 234 -75 380 -112 630 -199 913 -356 1150 -163 246 -386 401
-617 429 -146 17 -291 -3 -411 -58 -203 -92 -322 -242 -307 -388 2 -18 32 -16
82 6 124 54 332 64 441 22 191 -74 369 -280 481 -554 25 -63 89 -289 102 -362
2 -16 7 -41 10 -55 4 -22 19 -106 30 -165 36 -210 77 -370 140 -551 149 -422
332 -678 565 -792 70 -34 151 -61 199 -67 24 -3 48 -8 52 -11 5 -3 9 -165 9
-360 l0 -354 -502 0 -503 0 -28 53 c-60 116 -194 209 -320 222 -163 18 -331
-68 -410 -208 -129 -232 -24 -505 233 -605 56 -22 206 -21 265 2 100 38 184
112 232 203 l28 53 503 0 502 0 0 -360 c0 -336 -1 -360 -17 -360 -10 0 -49
-16 -88 -36 -190 -97 -297 -261 -311 -474 -14 -217 108 -429 301 -525 91 -45
126 -54 225 -61 51 -4 95 -1 140 10 36 9 73 18 83 21 40 9 146 77 193 122 59
57 115 145 145 228 26 73 32 241 10 320 -47 169 -179 317 -338 379 l-58 22 -3
357 -2 357 502 0 503 0 28 -53 c132 -252 468 -300 667 -96 216 222 119 592
-180 689 -64 21 -194 19 -256 -4 -98 -38 -184 -113 -231 -203 l-28 -53 -502 0
-503 0 0 350 0 349 43 11 c226 55 366 129 505 270 144 145 258 321 356 550 15
36 31 74 36 85 17 36 71 177 127 330 93 251 99 266 142 375 36 89 166 359 223
462 37 67 161 248 223 325 211 263 430 425 676 498 45 14 85 27 88 30 2 3 -2
12 -10 20 -23 22 -161 34 -374 31 -209 -3 -302 -18 -433 -66 -83 -31 -229
-106 -267 -137 -5 -4 -23 -16 -38 -26 -78 -50 -220 -190 -317 -313 -66 -84
-220 -330 -220 -352 0 -5 -9 -27 -20 -50 -53 -110 -139 -401 -265 -902 -2 -8
-4 -15 -4 -15 -1 0 -23 -65 -50 -145 -44 -132 -75 -202 -138 -317 -53 -96
-165 -189 -252 -208 l-31 -7 0 1185 0 1185 38 7 c73 13 195 76 271 140 217
182 304 485 215 753 -73 217 -247 386 -467 451 -94 28 -246 36 -332 17z m228
-351 c226 -66 322 -314 202 -519 -61 -104 -182 -167 -308 -162 -200 9 -342
165 -332 366 10 220 227 376 438 315z"/>
</g>
</svg>
