<?xml version="1.0" encoding="UTF-8" standalone="no"?>
<!-- Created with Inkscape (http://www.inkscape.org/) -->

<svg
   xmlns:dc="http://purl.org/dc/elements/1.1/"
   xmlns:cc="http://creativecommons.org/ns#"
   xmlns:rdf="http://www.w3.org/1999/02/22-rdf-syntax-ns#"
   xmlns:svg="http://www.w3.org/2000/svg"
   xmlns="http://www.w3.org/2000/svg"
   xmlns:sodipodi="http://sodipodi.sourceforge.net/DTD/sodipodi-0.dtd"
   xmlns:inkscape="http://www.inkscape.org/namespaces/inkscape"
   width="600"
   height="600"
   viewBox="0 0 600.00001 600.00001"
   id="svg4362"
   version="1.1"
   inkscape:version="0.91 r13725"
   sodipodi:docname="antimony-redrawn-fill-attempt-2.svg">
  <defs
     id="defs4364" />
  <sodipodi:namedview
     id="base"
     pagecolor="#ffffff"
     bordercolor="#666666"
     borderopacity="1.0"
     inkscape:pageopacity="0.0"
     inkscape:pageshadow="2"
     inkscape:zoom="1.4"
     inkscape:cx="204.05875"
     inkscape:cy="274.38301"
     inkscape:document-units="px"
     inkscape:current-layer="layer1"
     showgrid="false"
     units="px"
     inkscape:window-width="1680"
     inkscape:window-height="1028"
     inkscape:window-x="1358"
     inkscape:window-y="-8"
     inkscape:window-maximized="1" />
  <metadata
     id="metadata4367">
    <rdf:RDF>
      <cc:Work
         rdf:about="">
        <dc:format>image/svg+xml</dc:format>
        <dc:type
           rdf:resource="http://purl.org/dc/dcmitype/StillImage" />
        <dc:title></dc:title>
      </cc:Work>
    </rdf:RDF>
  </metadata>
  <g
     inkscape:label="Layer 1"
     inkscape:groupmode="layer"
     id="layer1"
     transform="translate(0,-452.36216)">
    <path
       style="display:inline;fill:#000000"
       d="m 294.01093,492.08776 a 50,50 0 0 0 -50,50 50,50 0 0 0 35,47.63672 l 0,260.96875 -59.06249,0 a 30,30 0 0 0 -25.9375,-15 30,30 0 0 0 -30,30 30,30 0 0 0 30,30 30,30 0 0 0 25.94922,-15 l 59.05077,0 0,80.12496 a 37.5,37.5 0 0 0 -22.5,34.3184 37.5,37.5 0 0 0 37.5,37.50001 37.5,37.5 0 0 0 37.5,-37.50001 37.5,37.5 0 0 0 -22.5,-34.3477 l 0,-80.09566 59.0625,0 a 30,30 0 0 0 25.9375,15 30,30 0 0 0 30,-30 30,30 0 0 0 -30,-30 30,30 0 0 0 -25.94922,15 l -59.05078,0 0,-260.91992 a 50,50 0 0 0 35,-47.68555 50,50 0 0 0 -50,-50 z m 0,25 a 25,25 0 0 1 25,25 25,25 0 0 1 -25,25 25,25 0 0 1 -25,-25 25,25 0 0 1 25,-25 z"
       id="path3475"
       inkscape:connector-curvature="0" />
    <path
       id="path5802-5"
       style="display:inline;fill:none;fill-opacity:1;fill-rule:evenodd;stroke:#000000;stroke-width:0.91286987px;stroke-linecap:butt;stroke-linejoin:miter;stroke-opacity:1"
       d="m 488.17496,552.08712 c -194.164,0 -129.44299,183.60699 -194.164,183.60699 M 186.14206,552.08712 c -53.93407,0 -53.93407,32.36099 -53.93407,32.36099 m 355.96697,-32.36099 c 0,0 -64.72107,10.55701 -97.08203,97.082 -32.36096,86.52499 -32.36098,106.52496 -97.08197,116.52496 M 132.20799,584.44811 c 26.96747,0 53.93405,-21.80398 80.9015,64.72101 26.96742,86.52499 26.96742,106.52496 80.90147,116.52496 M 186.14206,552.08712 c 80.90227,0 53.93485,183.60699 107.8689,183.60699"
       inkscape:connector-curvature="0"
       sodipodi:nodetypes="cccccsccsccc" />
  </g>
</svg>
