<?xml version="1.0" encoding="UTF-8" standalone="no"?>
<!-- Created with Inkscape (http://www.inkscape.org/) -->

<svg
   xmlns:dc="http://purl.org/dc/elements/1.1/"
   xmlns:cc="http://creativecommons.org/ns#"
   xmlns:rdf="http://www.w3.org/1999/02/22-rdf-syntax-ns#"
   xmlns:svg="http://www.w3.org/2000/svg"
   xmlns="http://www.w3.org/2000/svg"
   xmlns:sodipodi="http://sodipodi.sourceforge.net/DTD/sodipodi-0.dtd"
   xmlns:inkscape="http://www.inkscape.org/namespaces/inkscape"
   id="svg3336"
   version="1.1"
   inkscape:version="0.91 r13725"
   width="575"
   height="575"
   viewBox="0 0 575 575"
   sodipodi:docname="new-icon.svg">
  <metadata
     id="metadata3342">
    <rdf:RDF>
      <cc:Work
         rdf:about="">
        <dc:format>image/svg+xml</dc:format>
        <dc:type
           rdf:resource="http://purl.org/dc/dcmitype/StillImage" />
        <dc:title></dc:title>
      </cc:Work>
    </rdf:RDF>
  </metadata>
  <defs
     id="defs3340" />
  <sodipodi:namedview
     pagecolor="#ffffff"
     bordercolor="#666666"
     borderopacity="1"
     objecttolerance="10"
     gridtolerance="10"
     guidetolerance="10"
     inkscape:pageopacity="0"
     inkscape:pageshadow="2"
     inkscape:window-width="1680"
     inkscape:window-height="1028"
     id="namedview3338"
     showgrid="false"
     inkscape:zoom="1.4834783"
     inkscape:cx="287.5"
     inkscape:cy="287.5"
     inkscape:window-x="1358"
     inkscape:window-y="-8"
     inkscape:window-maximized="1"
     inkscape:current-layer="svg3336" />
  <path
     style="fill:#000000"
     d="m 261.875,566.49435 c -7.13687,-3.36546 -12.65548,-8.37621 -16.58701,-15.06056 -11.76672,-20.00566 -7.8391,-32.49683 15.846,-50.39565 l 5.50899,-4.16314 -0.28195,-43.07014 c -0.15507,-23.68857 -0.55793,-43.5167 -0.89525,-44.0625 -0.91134,-1.47457 -56.44184,-1.22692 -59.22793,0.26414 -1.29129,0.69108 -4.20742,2.98124 -6.48032,5.08925 -2.27289,2.108 -5.75475,4.68974 -7.73748,5.73719 -4.53955,2.39817 -14.14667,2.3789 -19.93594,-0.04 -6.47051,-2.70356 -15.83083,-11.84937 -18.50823,-18.08408 -8.03909,-18.72016 5.73811,-39.97796 26.26261,-40.52241 6.20285,-0.16455 7.85104,0.3617 13.91151,4.44179 3.78125,2.54565 9.30935,6.5957 12.28468,9.0001 5.35537,4.32778 5.53218,4.37166 17.61625,4.37166 6.71361,0 19.02318,-0.36653 27.35461,-0.8145 l 15.14804,-0.81451 -0.37464,-41.92258 -0.37464,-41.92259 -9.88965,-3.20041 c -5.43931,-1.76022 -12.31026,-4.49277 -15.2688,-6.07231 -7.93977,-4.23903 -19.19644,-16.34538 -24.39277,-26.23403 -4.59614,-8.74645 -12.21438,-32.90555 -14.57429,-46.21822 -2.41464,-13.62145 -3.8253,-20.94289 -4.99524,-25.92585 -0.64566,-2.75 -2.08101,-8.9375 -3.18966,-13.75 C 184.93925,137.72676 170.61,116.61667 147.45256,105.88543 138.26367,101.62727 125.4281,98.75 115.62121,98.75 c -4.44042,0 -8.34943,-0.607993 -8.82167,-1.37209 -0.46814,-0.757472 2.1304,-4.387942 5.80106,-8.104773 C 123.38454,78.353557 136.04699,73.75 155.29824,73.75 c 26.91535,0 50.6,8.632035 62.95464,22.944246 11.30414,13.095274 16.96196,31.284074 21.05276,67.680754 3.30837,29.43535 4.27203,36.15984 6.35923,44.375 1.13535,4.46875 2.34845,9.60809 2.69578,11.42074 1.16891,6.10052 13.4111,29.18519 15.70185,29.60841 2.0608,0.38075 2.1875,-3.41594 2.1875,-65.55124 l 0,-65.9554 -9.84351,-9.44875 C 236.93637,90.134456 230.02525,77.670024 230.02836,61.25 c 0.005,-27.836395 20.85705,-50.343963 49.3442,-53.2625574 23.73409,-2.4316276 47.37858,15.6381114 53.15246,40.6204944 2.39139,10.347054 0.9938,26.159287 -3.04103,34.40621 -4.3962,8.985504 -14.41449,20.017813 -25.10899,27.650433 l -8.75,6.24485 -0.323,69.67028 c -0.2754,59.40469 -0.0622,69.67029 1.44666,69.67029 2.68888,0 12.20446,-11.23041 15.97525,-18.85418 6.49289,-13.12732 8.23294,-19.22876 13.51674,-47.39582 2.85596,-15.2247 4.65468,-23.85779 6.25054,-30 6.9884,-26.89721 12.90401,-39.72727 23.79981,-51.61812 12.28763,-13.409771 19.7711,-17.622589 40.36783,-22.725048 19.05701,-4.721022 65.01642,-12.497065 69.10536,-11.69219 1.52517,0.300218 -3.39112,3.501595 -13.88919,9.044346 -48.00294,25.344482 -64.66749,47.162712 -77.42234,101.366012 -8.98818,38.19645 -12.3644,48.93139 -20.91965,66.51581 -10.34034,21.25348 -26.35224,34.73658 -48.06238,40.4718 L 295,294.12866 l 0,42.31066 0,42.31068 22.41161,0 22.4116,0 7.2759,-4.81869 c 12.14685,-8.04465 15.07617,-9.16816 24.05032,-9.22434 15.3154,-0.0959 27.21292,9.99543 31.34981,26.59043 2.00762,8.05355 -1.65354,17.48424 -10.13123,26.0967 -7.272,7.38761 -12.87032,10.1059 -20.81314,10.1059 -9.881,0 -15.32221,-2.47299 -24.05487,-10.93274 l -8.125,-7.87109 -21.875,0.33942 -21.875,0.33941 -0.34859,44.375 c -0.19172,24.40625 -0.0655,45.5 0.28051,46.875 0.346,1.375 3.4877,5.59375 6.98154,9.375 8.00576,8.6643 10.08391,13.3237 10.12881,22.70957 0.0645,13.48654 -8.3457,25.66003 -22.44183,32.48385 -7.9033,3.82593 -21.65748,4.45707 -28.35044,1.30093 z M 295.19057,85.436747 c 7.23424,-5.240452 11.4023,-13.089557 11.51618,-21.686747 0.10613,-8.014146 -2.19687,-16.97811 -5.35409,-20.839345 -6.72351,-8.222787 -19.62714,-10.404679 -30.1503,-5.098155 -7.7962,3.931396 -10.30335,9.59632 -10.37282,23.4375 -0.0619,12.336724 2.82501,20.507539 8.70038,24.624451 5.32815,3.733461 6.71509,4.099588 13.92898,3.677 4.92575,-0.288549 7.88038,-1.324836 11.73168,-4.114704 z"
     id="path3348"
     inkscape:connector-curvature="0" />
</svg>
