<?xml version="1.0" encoding="UTF-8" standalone="no"?>
<!-- Created with Inkscape (http://www.inkscape.org/) -->

<svg
   xmlns:dc="http://purl.org/dc/elements/1.1/"
   xmlns:cc="http://creativecommons.org/ns#"
   xmlns:rdf="http://www.w3.org/1999/02/22-rdf-syntax-ns#"
   xmlns:svg="http://www.w3.org/2000/svg"
   xmlns="http://www.w3.org/2000/svg"
   xmlns:sodipodi="http://sodipodi.sourceforge.net/DTD/sodipodi-0.dtd"
   xmlns:inkscape="http://www.inkscape.org/namespaces/inkscape"
   width="600"
   height="600"
   viewBox="0 0 600.00001 600.00001"
   id="svg4362"
   version="1.1"
   inkscape:version="0.91 r13725"
   sodipodi:docname="antimony-redrawn-fill-attempt-3.svg">
  <defs
     id="defs4364" />
  <sodipodi:namedview
     id="base"
     pagecolor="#ffffff"
     bordercolor="#666666"
     borderopacity="1.0"
     inkscape:pageopacity="0.0"
     inkscape:pageshadow="2"
     inkscape:zoom="1.4"
     inkscape:cx="204.05875"
     inkscape:cy="274.38301"
     inkscape:document-units="px"
     inkscape:current-layer="layer2"
     showgrid="false"
     units="px"
     inkscape:window-width="1680"
     inkscape:window-height="1028"
     inkscape:window-x="1358"
     inkscape:window-y="-8"
     inkscape:window-maximized="1" />
  <metadata
     id="metadata4367">
    <rdf:RDF>
      <cc:Work
         rdf:about="">
        <dc:format>image/svg+xml</dc:format>
        <dc:type
           rdf:resource="http://purl.org/dc/dcmitype/StillImage" />
        <dc:title></dc:title>
      </cc:Work>
    </rdf:RDF>
  </metadata>
  <g
     inkscape:label="Layer 1"
     inkscape:groupmode="layer"
     id="layer1"
     transform="translate(0,-452.36216)"
     style="display:inline">
    <path
       style="display:inline;fill:#000000"
       d="m 284.01137,482.08728 a 50,50 0 0 0 -50,50 50,50 0 0 0 35,47.63672 l 0,260.96875 -59.06249,0 a 30,30 0 0 0 -25.9375,-15 30,30 0 0 0 -30,30 30,30 0 0 0 30,30 30,30 0 0 0 25.94922,-15 l 59.05077,0 0,80.12496 a 37.5,37.5 0 0 0 -22.5,34.31835 37.5,37.5 0 0 0 37.5,37.50014 37.5,37.5 0 0 0 37.5,-37.50014 37.5,37.5 0 0 0 -22.5,-34.34765 l 0,-80.09566 59.0625,0 a 30,30 0 0 0 25.9375,15 30,30 0 0 0 30,-30 30,30 0 0 0 -30,-30 30,30 0 0 0 -25.94922,15 l -59.05078,0 0,-260.91992 a 50,50 0 0 0 35,-47.68555 50,50 0 0 0 -50,-50 z m 0,25 a 25,25 0 0 1 25,25 25,25 0 0 1 -25,25 25,25 0 0 1 -25,-25 25,25 0 0 1 25,-25 z"
       id="path3475"
       inkscape:connector-curvature="0" />
    <path
       id="path5802-5"
       style="display:inline;fill:none;fill-opacity:1;fill-rule:evenodd;stroke:#000000;stroke-width:0.91286987px;stroke-linecap:butt;stroke-linejoin:miter;stroke-opacity:1"
       d="m 478.1754,542.08664 c -194.164,0 -129.44299,183.60699 -194.164,183.60699 M 176.1425,542.08664 c -53.93407,0 -53.93407,32.36099 -53.93407,32.36099 M 478.1754,542.08664 c 0,0 -64.72107,10.55701 -97.08203,97.082 C 348.73241,725.69363 348.73239,745.6936 284.0114,755.6936 M 122.20843,574.44763 c 26.96747,0 53.93405,-21.80398 80.9015,64.72101 26.96742,86.52499 26.96742,106.52496 80.90147,116.52496 M 176.1425,542.08664 c 80.90227,0 53.93485,183.60699 107.8689,183.60699"
       inkscape:connector-curvature="0"
       sodipodi:nodetypes="cccccsccsccc" />
  </g>
  <g
     inkscape:groupmode="layer"
     id="layer2"
     inkscape:label="Layer 2">
    <path
       id="path5802-5-0"
       style="display:inline;fill:none;fill-opacity:1;fill-rule:evenodd;stroke:#000000;stroke-width:0.91286987px;stroke-linecap:butt;stroke-linejoin:miter;stroke-opacity:1"
       d="m 478.1754,89.724959 c -194.164,0 -129.44299,183.606991 -194.164,183.606991 M 176.1425,89.724959 c -53.93407,0 -53.93407,32.360991 -53.93407,32.360991 M 478.1754,89.724959 c 0,0 -64.72107,10.557011 -97.08203,97.082001 -32.36096,86.52499 -32.36098,106.52496 -97.08197,116.52496 M 122.20843,122.08595 c 26.96747,0 53.93405,-21.80398 80.9015,64.72101 26.96742,86.52499 26.96742,106.52496 80.90147,116.52496 M 176.1425,89.724959 c 80.90227,0 53.93485,183.606991 107.8689,183.606991"
       inkscape:connector-curvature="0"
       sodipodi:nodetypes="cccccsccsccc" />
    <path
       style="fill:#000000;fill-opacity:1;fill-rule:evenodd;stroke:none;stroke-opacity:1"
       d="m 465.40641,89.788582 c -33.2766,1.74273 -68.05647,9.521704 -94.04716,31.584818 -23.97474,20.05672 -36.91452,49.84027 -44.8112,79.39727 -5.84621,18.67818 -8.7835,38.47363 -17.69159,55.92221 -4.49888,9.30242 -13.87681,17.04259 -24.69334,16.14372 -10.54156,0.80687 -19.05038,-8.16341 -23.33261,-16.93613 -10.35275,-21.97183 -14.0051,-46.29111 -19.52262,-69.73813 -6.30684,-26.37095 -11.44701,-54.31307 -27.66906,-76.75043 -9.3171,-13.278932 -25.6189,-21.267682 -41.85268,-19.776787 -16.17812,0.884546 -34.64459,4.484666 -44.48242,18.722097 -2.23315,3.80494 -5.559,8.42044 -4.52707,12.98968 3.85725,1.77391 8.57755,-0.20259 12.70172,-0.26796 11.602,-1.91427 24.81108,-2.27151 34.63645,5.44374 14.26152,11.31971 21.44326,28.84802 27.77065,45.38086 10.41422,29.70888 17.8284,60.44669 29.49777,89.70982 5.77284,14.39744 15.63646,28.02869 30.36679,34.14407 8.39213,3.64697 17.33751,6.27434 26.35893,7.64164 20.20126,-3.08993 42.07034,-8.1311 56.16599,-24.14386 13.94998,-16.09191 19.86008,-37.12241 27.67413,-56.49943 11.24453,-29.31656 20.08911,-60.53551 40.32143,-85.28444 16.37175,-20.79008 38.1481,-37.92774 63.59097,-46.089566 2.65756,-3.470521 -5.39648,-1.178288 -6.45508,-1.593192 z"
       id="path4994"
       inkscape:connector-curvature="0" />
  </g>
</svg>
