<?xml version="1.0" encoding="UTF-8" standalone="no"?>
<!-- Created with Inkscape (http://www.inkscape.org/) -->

<svg
   xmlns:dc="http://purl.org/dc/elements/1.1/"
   xmlns:cc="http://creativecommons.org/ns#"
   xmlns:rdf="http://www.w3.org/1999/02/22-rdf-syntax-ns#"
   xmlns:svg="http://www.w3.org/2000/svg"
   xmlns="http://www.w3.org/2000/svg"
   xmlns:sodipodi="http://sodipodi.sourceforge.net/DTD/sodipodi-0.dtd"
   xmlns:inkscape="http://www.inkscape.org/namespaces/inkscape"
   width="210mm"
   height="297mm"
   viewBox="0 0 744.09448819 1052.3622047"
   id="svg3441"
   version="1.1"
   inkscape:version="0.91 r13725"
   sodipodi:docname="antimony-redrawn.svg">
  <defs
     id="defs3443" />
  <sodipodi:namedview
     id="base"
     pagecolor="#ffffff"
     bordercolor="#666666"
     borderopacity="1.0"
     inkscape:pageopacity="0.0"
     inkscape:pageshadow="2"
     inkscape:zoom="0.98994949"
     inkscape:cx="284.8399"
     inkscape:cy="508.31478"
     inkscape:document-units="px"
     inkscape:current-layer="layer8"
     showgrid="false"
     showguides="false"
     inkscape:object-nodes="true"
     inkscape:snap-smooth-nodes="true"
     inkscape:window-width="1680"
     inkscape:window-height="1028"
     inkscape:window-x="1358"
     inkscape:window-y="-8"
     inkscape:window-maximized="1">
    <inkscape:grid
       type="xygrid"
       id="grid3473" />
  </sodipodi:namedview>
  <metadata
     id="metadata3446">
    <rdf:RDF>
      <cc:Work
         rdf:about="">
        <dc:format>image/svg+xml</dc:format>
        <dc:type
           rdf:resource="http://purl.org/dc/dcmitype/StillImage" />
        <dc:title></dc:title>
      </cc:Work>
    </rdf:RDF>
  </metadata>
  <g
     inkscape:label="Layer 1"
     inkscape:groupmode="layer"
     id="layer1"
     style="display:none">
    <path
       style="fill:#cccccc"
       d="m 282.03651,826.67008 c -7.13687,-3.36546 -12.65548,-8.37621 -16.58701,-15.06056 -11.76672,-20.00566 -7.8391,-32.49683 15.846,-50.39565 l 5.50899,-4.16314 -0.28195,-43.07014 c -0.15507,-23.68857 -0.55793,-43.5167 -0.89525,-44.0625 -0.91134,-1.47457 -56.44184,-1.22692 -59.22793,0.26414 -1.29129,0.69108 -4.20742,2.98124 -6.48032,5.08925 -2.27289,2.108 -5.75475,4.68974 -7.73748,5.73719 -4.53955,2.39817 -14.14667,2.3789 -19.93594,-0.04 -6.47051,-2.70356 -15.83083,-11.84937 -18.50823,-18.08408 -8.03909,-18.72016 5.73811,-39.97796 26.26261,-40.52241 6.20285,-0.16455 7.85104,0.3617 13.91151,4.44179 3.78125,2.54565 9.30935,6.5957 12.28468,9.0001 5.35537,4.32778 5.53218,4.37166 17.61625,4.37166 6.71361,0 19.02318,-0.36653 27.35461,-0.8145 l 15.14804,-0.81451 -0.37464,-41.92258 -0.37464,-41.92259 -9.88965,-3.20041 c -5.43931,-1.76022 -12.31026,-4.49277 -15.2688,-6.07231 -7.93977,-4.23903 -19.19644,-16.34538 -24.39277,-26.23403 -4.59614,-8.74645 -12.21438,-32.90555 -14.57429,-46.21822 -2.41464,-13.62145 -3.8253,-20.94289 -4.99524,-25.92585 -0.64566,-2.75 -2.08101,-8.9375 -3.18966,-13.75 -8.15464,-35.39824 -22.48389,-56.50833 -45.64133,-67.23958 -9.18889,-4.25816 -22.02446,-7.13543 -31.83135,-7.13543 -4.44042,0 -8.34943,-0.60799 -8.82167,-1.37209 -0.46814,-0.75747 2.1304,-4.38794 5.80106,-8.10477 10.78394,-10.91958 23.44639,-15.52314 42.69764,-15.52314 26.91535,0 50.6,8.63204 62.95464,22.94425 11.30414,13.09528 16.96196,31.28408 21.05276,67.68076 3.30837,29.43535 4.27203,36.15984 6.35923,44.375 1.13535,4.46875 2.34845,9.60809 2.69578,11.42074 1.16891,6.10052 13.4111,29.18519 15.70185,29.60841 2.0608,0.38075 2.1875,-3.41594 2.1875,-65.55124 l 0,-65.9554 -9.84351,-9.44875 c -19.47012,-18.68931 -26.38124,-31.15374 -26.37813,-47.57377 0.005,-27.83639 20.85705,-50.34396 49.3442,-53.26256 23.73409,-2.43162 47.37858,15.63812 53.15246,40.6205 2.39139,10.34705 0.9938,26.15929 -3.04103,34.40621 -4.3962,8.9855 -14.41449,20.01781 -25.10899,27.65044 l -8.75,6.24485 -0.323,69.67028 c -0.2754,59.40469 -0.0622,69.67029 1.44666,69.67029 2.68888,0 12.20446,-11.23041 15.97525,-18.85418 6.49289,-13.12732 8.23294,-19.22876 13.51674,-47.39582 2.85596,-15.2247 4.65468,-23.85779 6.25054,-30 6.9884,-26.89721 12.90401,-39.72727 23.79981,-51.61812 12.28763,-13.40978 19.7711,-17.6226 40.36783,-22.72506 19.05701,-4.72102 65.01642,-12.49706 69.10536,-11.69219 1.52517,0.30022 -3.39112,3.5016 -13.88919,9.04435 -48.00294,25.34449 -64.66749,47.16272 -77.42234,101.36602 -8.98818,38.19645 -12.3644,48.93139 -20.91965,66.51581 -10.34034,21.25348 -26.35224,34.73658 -48.06238,40.4718 l -10.47063,2.76605 0,42.31066 0,42.31068 22.41161,0 22.4116,0 7.2759,-4.81869 c 12.14685,-8.04465 15.07617,-9.16816 24.05032,-9.22434 15.3154,-0.0959 27.21292,9.99543 31.34981,26.59043 2.00762,8.05355 -1.65354,17.48424 -10.13123,26.0967 -7.272,7.38761 -12.87032,10.1059 -20.81314,10.1059 -9.881,0 -15.32221,-2.47299 -24.05487,-10.93274 l -8.125,-7.87109 -21.875,0.33942 -21.875,0.33941 -0.34859,44.375 c -0.19172,24.40625 -0.0655,45.5 0.28051,46.875 0.346,1.375 3.4877,5.59375 6.98154,9.375 8.00576,8.6643 10.08391,13.3237 10.12881,22.70957 0.0645,13.48654 -8.3457,25.66003 -22.44183,32.48385 -7.9033,3.82593 -21.65748,4.45707 -28.35044,1.30093 z m 33.31557,-481.05761 c 7.23424,-5.24045 11.4023,-13.08956 11.51618,-21.68675 0.10613,-8.01414 -2.19687,-16.97811 -5.35409,-20.83934 -6.72351,-8.22279 -19.62714,-10.40468 -30.1503,-5.09816 -7.7962,3.9314 -10.30335,9.59632 -10.37282,23.4375 -0.0619,12.33673 2.82501,20.50754 8.70038,24.62445 5.32815,3.73346 6.71509,4.09959 13.92898,3.677 4.92575,-0.28855 7.88038,-1.32483 11.73168,-4.1147 z"
       id="path3348"
       inkscape:connector-curvature="0" />
  </g>
  <g
     inkscape:groupmode="layer"
     id="layer3"
     inkscape:label="Layer 2"
     style="display:inline">
    <circle
       style="fill:#000000"
       id="path3475"
       cx="300"
       cy="781.80518"
       r="37.5" />
    <circle
       style="fill:#000000"
       id="path3475-1"
       cx="300"
       cy="328.75522"
       r="50" />
    <rect
       style="fill:#000000"
       id="rect3607"
       width="200"
       height="30"
       x="200"
       y="637.36218" />
    <circle
       style="fill:#000000"
       id="path3456"
       cx="200"
       cy="652.36218"
       r="30" />
    <circle
       style="fill:#000000"
       id="path3456-1"
       cx="400"
       cy="652.36218"
       r="30" />
    <rect
       style="fill:#000000"
       id="rect3609"
       width="30"
       height="453.04999"
       x="285"
       y="328.75522" />
    <circle
       style="fill:#ffffff"
       id="path3475-1-4"
       cx="300"
       cy="328.75522"
       r="25" />
  </g>
  <g
     inkscape:groupmode="layer"
     id="layer4"
     inkscape:label="Layer 3"
     style="display:none">
    <rect
       style="fill:#ff0000"
       id="rect3545"
       width="5"
       height="5"
       x="105.836"
       y="323.75522" />
    <rect
       style="fill:#ff0000"
       id="rect3545-6"
       width="5"
       height="5"
       x="494.164"
       y="323.75522" />
    <rect
       style="fill:#ff0000"
       id="rect3545-6-4"
       width="5"
       height="5"
       x="300"
       y="647.36218" />
    <rect
       style="fill:#ff0000"
       id="rect3545-6-2"
       width="5"
       height="5"
       x="461.80301"
       y="323.75522" />
    <rect
       style="fill:#ff0000"
       id="rect3545-6-2-8"
       width="5"
       height="5"
       x="561.80298"
       y="323.75522" />
    <rect
       style="fill:#ff0000"
       id="rect3545-6-4-3"
       width="5"
       height="5"
       x="300"
       y="547.36218" />
    <rect
       style="fill:#ff0000"
       id="rect3545-6-4-3-6"
       width="5"
       height="5"
       x="400"
       y="547.36218" />
    <rect
       style="fill:#ff0000"
       id="rect3545-6-4-3-6-6"
       width="5"
       height="5"
       x="200"
       y="547.36218" />
    <rect
       style="fill:#ff0000"
       id="rect3545-6-4-3-6-7"
       width="5"
       height="5"
       x="138.19701"
       y="323.75522" />
    <rect
       style="fill:#ff0000"
       id="rect3545-6-2-9"
       width="5"
       height="5"
       x="429.44299"
       y="323.75522" />
    <rect
       style="fill:#ff0000"
       id="rect3545-6-2-9-8"
       width="5"
       height="5"
       x="364.72101"
       y="647.36218" />
    <rect
       style="fill:#ff0000"
       id="rect3545-6-2-9-8-9"
       width="5"
       height="5"
       x="332.36099"
       y="647.36218" />
    <rect
       style="fill:#ff0000"
       id="rect3545-6-2-3"
       width="5"
       height="5"
       x="364.72101"
       y="323.75522" />
    <rect
       style="fill:#ff0000"
       id="rect3545-6-8"
       width="5"
       height="5"
       x="267.63998"
       y="647.36218" />
    <rect
       style="fill:#ff0000"
       id="rect3545-6-2-7"
       width="5"
       height="5"
       x="235.27901"
       y="647.36218" />
    <rect
       style="fill:#ff0000"
       id="rect3545-6-2-9-1"
       width="5"
       height="5"
       x="170.55701"
       y="323.75522" />
    <rect
       style="fill:#ff0000"
       id="rect3545-6-2-7-7"
       width="5"
       height="5"
       x="235.27901"
       y="323.75522" />
    <rect
       style="fill:#ff0000"
       id="rect3545-8"
       width="5"
       height="5"
       x="105.836"
       y="356.11621" />
    <rect
       style="fill:#ff0000"
       id="rect3545-8-2"
       width="5"
       height="5"
       x="100"
       y="420.83722" />
    <rect
       style="fill:#ff0000"
       id="rect3545-8-5"
       width="5"
       height="5"
       x="500"
       y="420.83722" />
    <rect
       style="fill:#ff0000"
       id="rect3545-8-2-4"
       width="5"
       height="5"
       x="398.479"
       y="420.83722" />
    <rect
       style="fill:#ff0000"
       id="rect3545-8-2-4-9"
       width="5"
       height="5"
       x="344.07901"
       y="420.83722" />
    <rect
       style="fill:#ff0000"
       id="rect3545-8-2-4-9-5"
       width="5"
       height="5"
       x="255.92101"
       y="420.83722" />
    <rect
       style="fill:#ff0000"
       id="rect3545-8-2-4-9-5-7"
       width="5"
       height="5"
       x="201.521"
       y="420.83722" />
    <path
       style="fill:none;fill-rule:evenodd;stroke:#000000;stroke-width:1px;stroke-linecap:butt;stroke-linejoin:miter;stroke-opacity:1"
       d="m 398.479,425.83722 c 30.96399,-97.082 95.685,-97.082 95.685,-97.082"
       id="path4719"
       inkscape:connector-curvature="0" />
    <rect
       style="fill:#ff0000"
       id="rect3545-6-2-3-3"
       width="5"
       height="5"
       x="397.08197"
       y="323.75522" />
    <rect
       style="fill:#ff0000"
       id="rect3545-6-2-9-1-7"
       width="5"
       height="5"
       x="202.918"
       y="323.75522" />
    <rect
       style="fill:#ff0000"
       id="rect3545-6-2-3-7"
       width="5"
       height="5"
       x="364.72101"
       y="356.11621" />
    <rect
       style="fill:#ff0000"
       id="rect3545-6-2-7-7-0"
       width="5"
       height="5"
       x="235.27901"
       y="356.11621" />
    <rect
       style="fill:#ff0000"
       id="rect3545-6-2-3-3-6"
       width="5"
       height="5"
       x="397.08197"
       y="356.11621" />
    <rect
       style="fill:#ff0000"
       id="rect3545-6-2-9-1-7-4"
       width="5"
       height="5"
       x="202.918"
       y="356.11621" />
    <rect
       style="fill:#ff0000"
       id="rect3545-6-4-3-6-6-6"
       width="5"
       height="5"
       x="238.451"
       y="547.36218" />
    <rect
       style="fill:#ff0000"
       id="rect3545-6-4-3-6-6-9"
       width="5"
       height="5"
       x="361.54901"
       y="547.36218" />
    <rect
       style="fill:#ff0000"
       id="rect3545-6-2-9-8-9-8"
       width="5"
       height="5"
       x="332.36102"
       y="547.36218" />
    <rect
       style="fill:#ff0000"
       id="rect3545-6-8-1"
       width="5"
       height="5"
       x="267.64001"
       y="547.36218" />
    <rect
       style="fill:#ff0000"
       id="rect3545-6-2-9-8-9-3"
       width="5"
       height="5"
       x="332.36099"
       y="420.83722" />
    <rect
       style="fill:#ff0000"
       id="rect3545-6-8-2"
       width="5"
       height="5"
       x="267.64001"
       y="420.83722" />
    <rect
       style="fill:#ff0000"
       id="rect3545-6-2-9-8-9-3-9"
       width="5"
       height="5"
       x="332.36099"
       y="356.11621" />
    <rect
       style="fill:#ff0000"
       id="rect3545-6-8-2-7"
       width="5"
       height="5"
       x="267.64001"
       y="356.11621" />
    <rect
       style="fill:#ff0000"
       id="rect3545-6-4-7"
       width="4.9999986"
       height="5"
       x="300.00003"
       y="507.36221" />
    <rect
       style="fill:#ff0000"
       id="rect3545-6-2-9-8-9-5"
       width="4.9999986"
       height="5"
       x="332.36102"
       y="507.36221" />
    <rect
       style="fill:#ff0000"
       id="rect3545-6-8-6"
       width="4.9999986"
       height="5"
       x="267.64001"
       y="507.36221" />
    <path
       style="fill:none;fill-rule:evenodd;stroke:#000000;stroke-width:1px;stroke-linecap:butt;stroke-linejoin:miter;stroke-opacity:1"
       d="M 201.521,425.83722 C 238.451,552.36218 267.63898,552.36219 300,552.36218"
       id="path5230"
       inkscape:connector-curvature="0" />
    <path
       style="fill:none;fill-rule:evenodd;stroke:#000000;stroke-width:1px;stroke-linecap:butt;stroke-linejoin:miter;stroke-opacity:1"
       d="M 398.479,425.83722 C 361.54901,552.36218 332.35999,552.36218 300,552.36218"
       id="path5232"
       inkscape:connector-curvature="0" />
    <rect
       style="fill:#ff0000"
       id="rect3545-6-2-3-7-7"
       width="5"
       height="5"
       x="364.72098"
       y="420.83722" />
    <rect
       style="fill:#ff0000"
       id="rect3545-6-2-7-7-0-9"
       width="5"
       height="5"
       x="235.27901"
       y="420.83722" />
    <path
       style="fill:none;fill-rule:evenodd;stroke:#000000;stroke-width:1px;stroke-linecap:butt;stroke-linejoin:miter;stroke-opacity:1"
       d="M 300,652.36218 235.27901,328.75522"
       id="path5252"
       inkscape:connector-curvature="0" />
    <path
       style="fill:none;fill-rule:evenodd;stroke:#000000;stroke-width:1px;stroke-linecap:butt;stroke-linejoin:miter;stroke-opacity:1"
       d="m 170.55701,328.75522 97.08297,323.60696"
       id="path5254"
       inkscape:connector-curvature="0" />
    <path
       style="fill:none;fill-rule:evenodd;stroke:#000000;stroke-width:1px;stroke-linecap:butt;stroke-linejoin:miter;stroke-opacity:1"
       d="m 332.36099,652.36218 97.082,-323.60696"
       id="path5256"
       inkscape:connector-curvature="0" />
    <path
       style="fill:none;fill-rule:evenodd;stroke:#000000;stroke-width:1px;stroke-linecap:butt;stroke-linejoin:miter;stroke-opacity:1"
       d="M 364.72101,328.75522 300,652.36218"
       id="path5258"
       inkscape:connector-curvature="0" />
    <rect
       style="fill:#ff0000"
       id="rect3545-5"
       width="5"
       height="5"
       x="105.836"
       y="507.36221" />
    <rect
       style="fill:#ff0000"
       id="rect3545-6-7"
       width="5"
       height="5"
       x="494.16403"
       y="507.36221" />
    <rect
       style="fill:#ff0000"
       id="rect3545-6-2-6"
       width="5"
       height="5"
       x="461.80304"
       y="507.36221" />
    <rect
       style="fill:#ff0000"
       id="rect3545-6-4-3-6-7-4"
       width="5"
       height="5"
       x="138.19702"
       y="507.36221" />
    <rect
       style="fill:#ff0000"
       id="rect3545-6-2-9-9"
       width="5"
       height="5"
       x="429.44302"
       y="507.36221" />
    <rect
       style="fill:#ff0000"
       id="rect3545-6-2-3-9"
       width="5"
       height="5"
       x="364.72104"
       y="507.36221" />
    <rect
       style="fill:#ff0000"
       id="rect3545-6-2-9-1-1"
       width="5"
       height="5"
       x="170.55702"
       y="507.36221" />
    <rect
       style="fill:#ff0000"
       id="rect3545-6-2-7-7-06"
       width="5"
       height="5"
       x="235.27902"
       y="507.36221" />
    <rect
       style="fill:#ff0000"
       id="rect3545-6-2-3-3-9"
       width="5"
       height="5"
       x="397.082"
       y="507.36221" />
    <rect
       style="fill:#ff0000"
       id="rect3545-6-2-9-1-7-9"
       width="5"
       height="5"
       x="202.91801"
       y="507.36221" />
    <path
       style="fill:none;fill-rule:evenodd;stroke:#000000;stroke-width:1px;stroke-linecap:butt;stroke-linejoin:miter;stroke-opacity:1"
       d="m 300.00003,512.36221 c 32.36099,0 23.43698,-21.80398 44.07898,-86.52499 20.642,-64.72101 7.85289,-95.39946 150.08499,-97.082"
       id="path5348"
       inkscape:connector-curvature="0" />
    <path
       style="fill:none;fill-rule:evenodd;stroke:#000000;stroke-width:1px;stroke-linecap:butt;stroke-linejoin:miter;stroke-opacity:1"
       d="m 300.00003,512.36221 c -32.36002,0 -23.43703,-21.80398 -44.07902,-86.52499 -20.642,-64.72101 -20.64299,-97.082 -85.364,-97.082 -64.72101,0 -64.72101,32.36099 -64.72101,32.36099 0,0 -129.443013,32.36099 0,0 129.44301,-32.36099 -69.479382,-105.21503 95.685,64.72101"
       id="path5352"
       inkscape:connector-curvature="0" />
  </g>
  <g
     inkscape:groupmode="layer"
     id="layer5"
     inkscape:label="Layer 4"
     style="display:none" />
  <g
     inkscape:groupmode="layer"
     id="layer6"
     inkscape:label="Layer 5"
     style="display:none">
    <rect
       style="fill:#ff00ff"
       id="rect3545-6-4-7-2"
       width="4.9999986"
       height="5"
       x="300.00003"
       y="647.36218" />
    <rect
       style="fill:#ff00ff"
       id="rect3545-6-2-9-8-9-5-6"
       width="4.9999986"
       height="5"
       x="332.36102"
       y="647.36218" />
    <rect
       style="fill:#ff00ff"
       id="rect3545-6-8-6-4"
       width="4.9999986"
       height="5"
       x="267.64001"
       y="647.36218" />
    <rect
       style="fill:#ff00ff"
       id="rect3545-5-1"
       width="5"
       height="5"
       x="105.836"
       y="647.36218" />
    <rect
       style="fill:#ff00ff"
       id="rect3545-6-7-9"
       width="5"
       height="5"
       x="494.16403"
       y="647.36218" />
    <rect
       style="fill:#ff00ff"
       id="rect3545-6-2-6-8"
       width="5"
       height="5"
       x="461.80304"
       y="647.36218" />
    <rect
       style="fill:#ff00ff"
       id="rect3545-6-4-3-6-7-4-5"
       width="5"
       height="5"
       x="138.19702"
       y="647.36218" />
    <rect
       style="fill:#ff00ff"
       id="rect3545-6-2-9-9-2"
       width="5"
       height="5"
       x="429.44302"
       y="647.36218" />
    <rect
       style="fill:#ff00ff"
       id="rect3545-6-2-3-9-9"
       width="5"
       height="5"
       x="364.72104"
       y="647.36218" />
    <rect
       style="fill:#ff00ff"
       id="rect3545-6-2-9-1-1-4"
       width="5"
       height="5"
       x="170.55702"
       y="647.36218" />
    <rect
       style="fill:#ff00ff"
       id="rect3545-6-2-7-7-06-3"
       width="5"
       height="5"
       x="235.27902"
       y="647.36218" />
    <rect
       style="fill:#ff00ff"
       id="rect3545-6-2-3-3-9-0"
       width="5"
       height="5"
       x="397.082"
       y="647.36218" />
    <rect
       style="fill:#ff00ff"
       id="rect3545-6-2-9-1-7-9-6"
       width="5"
       height="5"
       x="202.91801"
       y="647.36218" />
    <rect
       style="fill:#ff00ff"
       id="rect3545-6-4-7-2-8"
       width="4.9999986"
       height="5"
       x="300.00003"
       y="323.75522" />
    <rect
       style="fill:#ff00ff"
       id="rect3545-6-2-9-8-9-5-6-0"
       width="4.9999986"
       height="5"
       x="332.36102"
       y="323.75522" />
    <rect
       style="fill:#ff00ff"
       id="rect3545-6-8-6-4-0"
       width="4.9999986"
       height="5"
       x="267.64001"
       y="323.75522" />
    <rect
       style="fill:#ff00ff"
       id="rect3545-5-1-9"
       width="5"
       height="5"
       x="105.836"
       y="323.75522" />
    <rect
       style="fill:#ff00ff"
       id="rect3545-6-7-9-3"
       width="5"
       height="5"
       x="494.16403"
       y="323.75522" />
    <rect
       style="fill:#ff00ff"
       id="rect3545-6-2-6-8-6"
       width="5"
       height="5"
       x="461.80304"
       y="323.75522" />
    <rect
       style="fill:#ff00ff"
       id="rect3545-6-4-3-6-7-4-5-3"
       width="5"
       height="5"
       x="138.19704"
       y="323.75522" />
    <rect
       style="fill:#ff00ff"
       id="rect3545-6-2-9-9-2-0"
       width="5"
       height="5"
       x="429.44302"
       y="323.75522" />
    <rect
       style="fill:#ff00ff"
       id="rect3545-6-2-3-9-9-0"
       width="5"
       height="5"
       x="364.72104"
       y="323.75522" />
    <rect
       style="fill:#ff00ff"
       id="rect3545-6-2-9-1-1-4-7"
       width="5"
       height="5"
       x="170.55704"
       y="323.75522" />
    <rect
       style="fill:#ff00ff"
       id="rect3545-6-2-7-7-06-3-0"
       width="5"
       height="5"
       x="235.27904"
       y="323.75522" />
    <rect
       style="fill:#ff00ff"
       id="rect3545-6-2-3-3-9-0-0"
       width="5"
       height="5"
       x="397.082"
       y="323.75522" />
    <rect
       style="fill:#ff00ff"
       id="rect3545-6-2-9-1-7-9-6-8"
       width="5"
       height="5"
       x="202.91803"
       y="323.75522" />
    <rect
       style="fill:#ff00ff"
       id="rect3545-6-4-7-2-2"
       width="4.9999986"
       height="5"
       x="300.00003"
       y="547.36218" />
    <rect
       style="fill:#ff00ff"
       id="rect3545-6-2-9-8-9-5-6-6"
       width="4.9999986"
       height="5"
       x="332.36102"
       y="547.36218" />
    <rect
       style="fill:#ff00ff"
       id="rect3545-6-8-6-4-3"
       width="4.9999986"
       height="5"
       x="267.64001"
       y="547.36218" />
    <rect
       style="fill:#ff00ff"
       id="rect3545-5-1-7"
       width="5"
       height="5"
       x="105.836"
       y="547.36218" />
    <rect
       style="fill:#ff00ff"
       id="rect3545-6-7-9-32"
       width="5"
       height="5"
       x="494.16403"
       y="547.36218" />
    <rect
       style="fill:#ff00ff"
       id="rect3545-6-2-6-8-0"
       width="5"
       height="5"
       x="461.80304"
       y="547.36218" />
    <rect
       style="fill:#ff00ff"
       id="rect3545-6-4-3-6-7-4-5-1"
       width="5"
       height="5"
       x="138.19704"
       y="547.36218" />
    <rect
       style="fill:#ff00ff"
       id="rect3545-6-2-9-9-2-4"
       width="5"
       height="5"
       x="429.44302"
       y="547.36218" />
    <rect
       style="fill:#ff00ff"
       id="rect3545-6-2-3-9-9-6"
       width="5"
       height="5"
       x="364.72104"
       y="547.36218" />
    <rect
       style="fill:#ff00ff"
       id="rect3545-6-2-9-1-1-4-9"
       width="5"
       height="5"
       x="170.55704"
       y="547.36218" />
    <rect
       style="fill:#ff00ff"
       id="rect3545-6-2-7-7-06-3-03"
       width="5"
       height="5"
       x="235.27904"
       y="547.36218" />
    <rect
       style="fill:#ff00ff"
       id="rect3545-6-2-3-3-9-0-3"
       width="5"
       height="5"
       x="397.082"
       y="547.36218" />
    <rect
       style="fill:#ff00ff"
       id="rect3545-6-2-9-1-7-9-6-3"
       width="5"
       height="5"
       x="202.91803"
       y="547.36218" />
    <rect
       style="fill:#ff00ff"
       id="rect3545-6-4-7-2-6"
       width="4.9999986"
       height="5"
       x="300.00003"
       y="420.83722" />
    <rect
       style="fill:#ff00ff"
       id="rect3545-6-2-9-8-9-5-6-5"
       width="4.9999986"
       height="5"
       x="332.36102"
       y="420.83722" />
    <rect
       style="fill:#ff00ff"
       id="rect3545-6-8-6-4-8"
       width="4.9999986"
       height="5"
       x="267.64001"
       y="420.83722" />
    <rect
       style="fill:#ff00ff"
       id="rect3545-5-1-4"
       width="5"
       height="5"
       x="105.836"
       y="420.83722" />
    <rect
       style="fill:#ff00ff"
       id="rect3545-6-7-9-7"
       width="5"
       height="5"
       x="494.16403"
       y="420.83722" />
    <rect
       style="fill:#ff00ff"
       id="rect3545-6-2-6-8-2"
       width="5"
       height="5"
       x="461.80304"
       y="420.83722" />
    <rect
       style="fill:#ff00ff"
       id="rect3545-6-4-3-6-7-4-5-7"
       width="5"
       height="5"
       x="138.19702"
       y="420.83722" />
    <rect
       style="fill:#ff00ff"
       id="rect3545-6-2-9-9-2-3"
       width="5"
       height="5"
       x="429.44302"
       y="420.83722" />
    <rect
       style="fill:#ff00ff"
       id="rect3545-6-2-3-9-9-7"
       width="5"
       height="5"
       x="364.72104"
       y="420.83722" />
    <rect
       style="fill:#ff00ff"
       id="rect3545-6-2-9-1-1-4-5"
       width="5"
       height="5"
       x="170.55702"
       y="420.83722" />
    <rect
       style="fill:#ff00ff"
       id="rect3545-6-2-7-7-06-3-01"
       width="5"
       height="5"
       x="235.27902"
       y="420.83722" />
    <rect
       style="fill:#ff00ff"
       id="rect3545-6-2-3-3-9-0-02"
       width="5"
       height="5"
       x="397.082"
       y="420.83722" />
    <rect
       style="fill:#ff00ff"
       id="rect3545-6-2-9-1-7-9-6-2"
       width="5"
       height="5"
       x="202.91801"
       y="420.83722" />
    <rect
       style="fill:#ff00ff"
       id="rect3545-6-4-7-2-9"
       width="4.9999986"
       height="5"
       x="300.00003"
       y="507.36221" />
    <rect
       style="fill:#ff00ff"
       id="rect3545-6-2-9-8-9-5-6-60"
       width="4.9999986"
       height="5"
       x="332.36102"
       y="507.36221" />
    <rect
       style="fill:#ff00ff"
       id="rect3545-6-8-6-4-5"
       width="4.9999986"
       height="5"
       x="267.64001"
       y="507.36221" />
    <rect
       style="fill:#ff00ff"
       id="rect3545-5-1-0"
       width="5"
       height="5"
       x="105.836"
       y="507.36221" />
    <rect
       style="fill:#ff00ff"
       id="rect3545-6-7-9-33"
       width="5"
       height="5"
       x="494.16403"
       y="507.36221" />
    <rect
       style="fill:#ff00ff"
       id="rect3545-6-2-6-8-8"
       width="5"
       height="5"
       x="461.80304"
       y="507.36221" />
    <rect
       style="fill:#ff00ff"
       id="rect3545-6-4-3-6-7-4-5-33"
       width="5"
       height="5"
       x="138.19702"
       y="507.36221" />
    <rect
       style="fill:#ff00ff"
       id="rect3545-6-2-9-9-2-9"
       width="5"
       height="5"
       x="429.44302"
       y="507.36221" />
    <rect
       style="fill:#ff00ff"
       id="rect3545-6-2-3-9-9-4"
       width="5"
       height="5"
       x="364.72104"
       y="507.36221" />
    <rect
       style="fill:#ff00ff"
       id="rect3545-6-2-9-1-1-4-50"
       width="5"
       height="5"
       x="170.55702"
       y="507.36221" />
    <rect
       style="fill:#ff00ff"
       id="rect3545-6-2-7-7-06-3-7"
       width="5"
       height="5"
       x="235.27902"
       y="507.36221" />
    <rect
       style="fill:#ff00ff"
       id="rect3545-6-2-3-3-9-0-5"
       width="5"
       height="5"
       x="397.082"
       y="507.36221" />
    <rect
       style="fill:#ff00ff"
       id="rect3545-6-2-9-1-7-9-6-35"
       width="5"
       height="5"
       x="202.91801"
       y="507.36221" />
    <rect
       style="fill:#ff00ff"
       id="rect3545-6-4-7-2-8-0"
       width="4.9999986"
       height="5"
       x="300.00003"
       y="356.11621" />
    <rect
       style="fill:#ff00ff"
       id="rect3545-6-2-9-8-9-5-6-0-3"
       width="4.9999986"
       height="5"
       x="332.36102"
       y="356.11621" />
    <rect
       style="fill:#ff00ff"
       id="rect3545-6-8-6-4-0-1"
       width="4.9999986"
       height="5"
       x="267.64001"
       y="356.11621" />
    <rect
       style="fill:#ff00ff"
       id="rect3545-5-1-9-3"
       width="5"
       height="5"
       x="105.836"
       y="356.11621" />
    <rect
       style="fill:#ff00ff"
       id="rect3545-6-7-9-3-2"
       width="5"
       height="5"
       x="494.16403"
       y="356.11621" />
    <rect
       style="fill:#ff00ff"
       id="rect3545-6-2-6-8-6-8"
       width="5"
       height="5"
       x="461.80304"
       y="356.11621" />
    <rect
       style="fill:#ff00ff"
       id="rect3545-6-4-3-6-7-4-5-3-7"
       width="5"
       height="5"
       x="138.19704"
       y="356.11621" />
    <rect
       style="fill:#ff00ff"
       id="rect3545-6-2-9-9-2-0-3"
       width="5"
       height="5"
       x="429.44302"
       y="356.11621" />
    <rect
       style="fill:#ff00ff"
       id="rect3545-6-2-3-9-9-0-4"
       width="5"
       height="5"
       x="364.72104"
       y="356.11621" />
    <rect
       style="fill:#ff00ff"
       id="rect3545-6-2-9-1-1-4-7-7"
       width="5"
       height="5"
       x="170.55704"
       y="356.11621" />
    <rect
       style="fill:#ff00ff"
       id="rect3545-6-2-7-7-06-3-0-6"
       width="5"
       height="5"
       x="235.27904"
       y="356.11621" />
    <rect
       style="fill:#ff00ff"
       id="rect3545-6-2-3-3-9-0-0-8"
       width="5"
       height="5"
       x="397.082"
       y="356.11621" />
    <rect
       style="fill:#ff00ff"
       id="rect3545-6-2-9-1-7-9-6-8-7"
       width="5"
       height="5"
       x="202.91803"
       y="356.11621" />
    <rect
       style="fill:#ff00ff"
       id="rect3545-6-4-7-2-6-7"
       width="4.9999986"
       height="5"
       x="300"
       y="453.19821" />
    <rect
       style="fill:#ff00ff"
       id="rect3545-6-2-9-8-9-5-6-5-8"
       width="4.9999986"
       height="5"
       x="332.36099"
       y="453.19821" />
    <rect
       style="fill:#ff00ff"
       id="rect3545-6-8-6-4-8-2"
       width="4.9999986"
       height="5"
       x="267.63998"
       y="453.19821" />
    <rect
       style="fill:#ff00ff"
       id="rect3545-5-1-4-0"
       width="5"
       height="5"
       x="105.836"
       y="453.19821" />
    <rect
       style="fill:#ff00ff"
       id="rect3545-6-7-9-7-3"
       width="5"
       height="5"
       x="494.164"
       y="453.19821" />
    <rect
       style="fill:#ff00ff"
       id="rect3545-6-2-6-8-2-1"
       width="5"
       height="5"
       x="461.80301"
       y="453.19821" />
    <rect
       style="fill:#ff00ff"
       id="rect3545-6-4-3-6-7-4-5-7-6"
       width="5"
       height="5"
       x="138.19702"
       y="453.19821" />
    <rect
       style="fill:#ff00ff"
       id="rect3545-6-2-9-9-2-3-8"
       width="5"
       height="5"
       x="429.44299"
       y="453.19821" />
    <rect
       style="fill:#ff00ff"
       id="rect3545-6-2-3-9-9-7-3"
       width="5"
       height="5"
       x="364.72101"
       y="453.19821" />
    <rect
       style="fill:#ff00ff"
       id="rect3545-6-2-9-1-1-4-5-6"
       width="5"
       height="5"
       x="170.55702"
       y="453.19821" />
    <rect
       style="fill:#ff00ff"
       id="rect3545-6-2-7-7-06-3-01-1"
       width="5"
       height="5"
       x="235.27902"
       y="453.19821" />
    <rect
       style="fill:#ff00ff"
       id="rect3545-6-2-3-3-9-0-02-7"
       width="5"
       height="5"
       x="397.08197"
       y="453.19821" />
    <rect
       style="fill:#ff00ff"
       id="rect3545-6-2-9-1-7-9-6-2-6"
       width="5"
       height="5"
       x="202.91801"
       y="453.19821" />
    <path
       style="fill:none;fill-rule:evenodd;stroke:#000000;stroke-width:1px;stroke-linecap:butt;stroke-linejoin:miter;stroke-opacity:1"
       d="m 494.16403,328.75522 c -194.164,0 -129.44299,183.60699 -194.164,183.60699"
       id="path5697"
       inkscape:connector-curvature="0" />
    <path
       style="fill:none;fill-rule:evenodd;stroke:#000000;stroke-width:0.91286987px;stroke-linecap:butt;stroke-linejoin:miter;stroke-opacity:1"
       d="m 192.13111,328.75522 c -53.93407,0 -53.93407,32.36099 -53.93407,32.36099"
       id="path5703"
       inkscape:connector-curvature="0" />
    <rect
       style="fill:#ff00ff"
       id="rect3545-6-4-7-2-2-7"
       width="4.9999986"
       height="5"
       x="300.00003"
       y="537.36218" />
    <rect
       style="fill:#ff00ff"
       id="rect3545-6-2-9-8-9-5-6-6-4"
       width="4.9999986"
       height="5"
       x="332.36102"
       y="537.36218" />
    <rect
       style="fill:#ff00ff"
       id="rect3545-6-8-6-4-3-3"
       width="4.9999986"
       height="5"
       x="267.64001"
       y="537.36218" />
    <rect
       style="fill:#ff00ff"
       id="rect3545-5-1-7-8"
       width="5"
       height="5"
       x="105.836"
       y="537.36218" />
    <rect
       style="fill:#ff00ff"
       id="rect3545-6-7-9-32-7"
       width="5"
       height="5"
       x="494.16403"
       y="537.36218" />
    <rect
       style="fill:#ff00ff"
       id="rect3545-6-2-6-8-0-9"
       width="5"
       height="5"
       x="461.80304"
       y="537.36218" />
    <rect
       style="fill:#ff00ff"
       id="rect3545-6-4-3-6-7-4-5-1-7"
       width="5"
       height="5"
       x="138.19705"
       y="537.36218" />
    <rect
       style="fill:#ff00ff"
       id="rect3545-6-2-9-9-2-4-9"
       width="5"
       height="5"
       x="429.44302"
       y="537.36218" />
    <rect
       style="fill:#ff00ff"
       id="rect3545-6-2-3-9-9-6-2"
       width="5"
       height="5"
       x="364.72104"
       y="537.36218" />
    <rect
       style="fill:#ff00ff"
       id="rect3545-6-2-9-1-1-4-9-7"
       width="5"
       height="5"
       x="170.55705"
       y="537.36218" />
    <rect
       style="fill:#ff00ff"
       id="rect3545-6-2-7-7-06-3-03-1"
       width="5"
       height="5"
       x="235.27905"
       y="537.36218" />
    <rect
       style="fill:#ff00ff"
       id="rect3545-6-2-3-3-9-0-3-0"
       width="5"
       height="5"
       x="397.082"
       y="537.36218" />
    <rect
       style="fill:#ff00ff"
       id="rect3545-6-2-9-1-7-9-6-3-7"
       width="5"
       height="5"
       x="202.91805"
       y="537.36218" />
    <path
       style="fill:none;fill-rule:evenodd;stroke:#000000;stroke-width:1px;stroke-linecap:butt;stroke-linejoin:miter;stroke-opacity:1"
       d="m 494.16403,328.75522 c 0,0 -64.72107,10.55701 -97.08203,97.082 -32.36096,86.52499 -32.36098,106.52496 -97.08197,116.52496"
       id="path5768"
       inkscape:connector-curvature="0" />
    <path
       style="fill:none;fill-rule:evenodd;stroke:#000000;stroke-width:0.91286987px;stroke-linecap:butt;stroke-linejoin:miter;stroke-opacity:1"
       d="m 138.19704,361.11621 c 26.96747,0 53.93405,-21.80398 80.9015,64.72101 26.96744,86.52499 26.96744,106.52496 80.90149,116.52496"
       id="path5772"
       inkscape:connector-curvature="0" />
    <path
       style="fill:none;fill-rule:evenodd;stroke:#000000;stroke-width:0.91286987px;stroke-linecap:butt;stroke-linejoin:miter;stroke-opacity:1"
       d="m 192.13111,328.75522 c 80.90229,0 53.93487,183.60699 107.86892,183.60699"
       id="path5802"
       inkscape:connector-curvature="0" />
  </g>
  <g
     inkscape:groupmode="layer"
     id="layer8"
     inkscape:label="Layer 6">
    <path
       style="fill:none;fill-rule:evenodd;stroke:#000000;stroke-width:1px;stroke-linecap:butt;stroke-linejoin:miter;stroke-opacity:1"
       d="m 494.16403,338.75522 c -194.164,0 -129.44299,183.60699 -194.164,183.60699"
       id="path5697-6"
       inkscape:connector-curvature="0" />
    <path
       style="fill:none;fill-rule:evenodd;stroke:#000000;stroke-width:0.91286987px;stroke-linecap:butt;stroke-linejoin:miter;stroke-opacity:1"
       d="m 192.13112,338.75522 c -53.93407,0 -53.93407,32.36099 -53.93407,32.36099"
       id="path5703-6"
       inkscape:connector-curvature="0" />
    <path
       style="fill:none;fill-rule:evenodd;stroke:#000000;stroke-width:1px;stroke-linecap:butt;stroke-linejoin:miter;stroke-opacity:1"
       d="m 494.16403,338.75522 c 0,0 -64.72107,10.55701 -97.08203,97.082 -32.36096,86.52499 -32.36098,106.52496 -97.08197,116.52496"
       id="path5768-2"
       inkscape:connector-curvature="0" />
    <path
       style="fill:none;fill-rule:evenodd;stroke:#000000;stroke-width:0.91286987px;stroke-linecap:butt;stroke-linejoin:miter;stroke-opacity:1"
       d="m 138.19705,371.11621 c 26.96747,0 53.93405,-21.80398 80.9015,64.72101 26.96743,86.52499 26.96743,106.52496 80.90148,116.52496"
       id="path5772-4"
       inkscape:connector-curvature="0" />
    <path
       style="fill:none;fill-rule:evenodd;stroke:#000000;stroke-width:0.91286987px;stroke-linecap:butt;stroke-linejoin:miter;stroke-opacity:1"
       d="m 192.13112,338.75522 c 80.90228,0 53.93486,183.60699 107.86891,183.60699"
       id="path5802-5"
       inkscape:connector-curvature="0" />
  </g>
</svg>
