<svg xmlns="http://www.w3.org/2000/svg" width="600" height="600" viewBox="0 0 600 600"><style>.a{fill:none;stroke-width:0.9px;stroke:#000;}</style><path d="m284 482.1a50 50 0 0 0-50 50 50 50 0 0 0 35 47.6l0 261-59.1 0a30 30 0 0 0-25.9-15 30 30 0 0 0-30 30 30 30 0 0 0 30 30 30 30 0 0 0 25.9-15l59.1 0 0 80.1a37.5 37.5 0 0 0-22.5 34.3 37.5 37.5 0 0 0 37.5 37.5 37.5 37.5 0 0 0 37.5-37.5 37.5 37.5 0 0 0-22.5-34.3l0-80.1 59.1 0a30 30 0 0 0 25.9 15 30 30 0 0 0 30-30 30 30 0 0 0-30-30 30 30 0 0 0-25.9 15l-59.1 0 0-260.9a50 50 0 0 0 35-47.7 50 50 0 0 0-50-50zm0 25a25 25 0 0 1 25 25 25 25 0 0 1-25 25 25 25 0 0 1-25-25 25 25 0 0 1 25-25z"/><path d="m478.2 542.1c-194.2 0-129.4 183.6-194.2 183.6M176.1 89.7c-53.9 0-53.9 32.4-53.9 32.4M478.2 89.7c0 0-64.7 10.6-97.1 97.1C348.7 273.3 348.7 293.3 284 303.3M122.2 122.1c27 0 53.9-21.8 80.9 64.7 27 86.5 27 106.5 80.9 116.5M176.1 89.7c80.9 0 53.9 183.6 107.9 183.6" class="a"/><path d="m478.2 89.7c-194.2 0-129.4 183.6-194.2 183.6M176.1 89.7c-53.9 0-53.9 32.4-53.9 32.4M478.2 89.7c0 0-64.7 10.6-97.1 97.1-32.4 86.5-32.4 106.5-97.1 116.5M122.2 122.1c27 0 53.9-21.8 80.9 64.7 27 86.5 27 106.5 80.9 116.5M176.1 89.7c80.9 0 53.9 183.6 107.9 183.6" class="a"/><path d="m465.4 89.8c-33.3 1.7-68.1 9.5-94 31.6-24 20.1-36.9 49.8-44.8 79.4-5.8 18.7-8.8 38.5-17.7 55.9-4.5 9.3-13.9 17-24.7 16.1-10.5 0.8-19.1-8.2-23.3-16.9-10.4-22-14-46.3-19.5-69.7-6.3-26.4-11.4-54.3-27.7-76.8-9.3-13.3-25.6-21.3-41.9-19.8-16.2 0.9-34.6 4.5-44.5 18.7-2.2 3.8-5.6 8.4-4.5 13 3.9 1.8 8.6-0.2 12.7-0.3 11.6-1.9 24.8-2.3 34.6 5.4 14.3 11.3 21.4 28.8 27.8 45.4 10.4 29.7 17.8 60.4 29.5 89.7 5.8 14.4 15.6 28 30.4 34.1 8.4 3.6 17.3 6.3 26.4 7.6 20.2-3.1 42.1-8.1 56.2-24.1 13.9-16.1 19.9-37.1 27.7-56.5 11.2-29.3 20.1-60.5 40.3-85.3 16.4-20.8 38.1-37.9 63.6-46.1 2.7-3.5-5.4-1.2-6.5-1.6z"/></svg>

